<?xml version="1.0" encoding="UTF-8" standalone="no"?>
<!DOCTYPE svg PUBLIC "-//W3C//DTD SVG 1.1//EN" "http://www.w3.org/Graphics/SVG/1.1/DTD/svg11.dtd">
<svg version="1.1" xmlns="http://www.w3.org/2000/svg" xmlns:xlink="http://www.w3.org/1999/xlink" preserveAspectRatio="xMidYMid meet" viewBox="0 0 10 10" width="10" height="10"><defs><path d="M272.58 279.74C270.77 282.29 271.38 285.83 273.93 287.63C276.48 289.44 280.01 288.83 281.82 286.28C283.63 283.72 283.02 280.19 283.23 274.49C277.92 276.58 274.39 277.18 272.58 279.74Z" id="h1pZzGz3Rf"></path><path d="M294.5 280.57C295.99 284.16 295.64 287.72 293.72 288.51C291.8 289.31 289.03 287.04 287.54 283.45C286.05 279.86 286.4 276.3 286.05 270.02C290.24 274.71 293.01 276.97 294.5 280.57Z" id="a18jtpL1a"></path><path d="M264.47 266.23C260.53 265.6 257.61 263.43 257.94 261.37C258.27 259.32 261.73 258.17 265.66 258.8C269.6 259.43 272.53 261.61 278.2 264.63C271.87 265.71 268.41 266.87 264.47 266.23Z" id="aOqhfgreK"></path><path d="M278.48 249.49C277.68 246.47 278.66 243.59 280.67 243.06C282.69 242.53 284.96 244.55 285.76 247.58C286.55 250.6 285.57 253.48 284.77 258.63C281.55 254.54 279.27 252.52 278.48 249.49Z" id="a4QyruFwm"></path><path d="M300.82 256.61C303.48 253.77 303.78 249.74 301.5 247.6C299.22 245.46 295.21 246.03 292.56 248.87C289.9 251.71 289.59 255.74 287.82 262.2C294.15 260.01 298.16 259.45 300.82 256.61Z" id="c1VNp1YrtP"></path><path d="M302.57 260.38C305.68 260.1 308.36 261.56 308.54 263.63C308.72 265.7 306.34 267.6 303.23 267.88C300.11 268.15 297.44 266.7 292.5 265.04C297.07 262.55 299.45 260.65 302.57 260.38Z" id="bfqqyBfRN"></path><path d="M269.49 269.3C267.5 270.53 266.73 272.88 267.76 274.54C268.78 276.2 271.23 276.55 273.22 275.32C275.2 274.09 275.98 271.74 277.98 268.2C273.92 268.42 271.48 268.07 269.49 269.3Z" id="c2MIHSzWYH"></path><path d="M273.15 250.78C271.19 249.37 268.59 249.65 267.34 251.39C266.08 253.14 266.65 255.69 268.6 257.1C270.55 258.5 273.15 258.23 277.38 258.63C275.66 254.74 275.1 252.19 273.15 250.78Z" id="bgh1PAcpc"></path><path d="M303.76 273.08C306.79 275.52 308.19 278.81 306.89 280.43C305.58 282.05 302.07 281.39 299.04 278.95C296.01 276.51 294.61 273.22 291.3 267.88C297.22 269.98 300.74 270.64 303.76 273.08Z" id="b3vYm8MAQE"></path><path d="M2.04 6.2C1.51 6.55 1.26 7.21 1.49 7.69C1.71 8.16 2.33 8.27 2.86 7.92C3.39 7.57 3.64 6.91 4.22 5.9C3.19 5.95 2.57 5.85 2.04 6.2Z" id="aybpKHNrj"></path><path d="M1.95 4.45C1.5 4.15 1.29 3.59 1.47 3.22C1.65 2.84 2.17 2.78 2.62 3.09C3.07 3.39 3.29 3.94 3.79 4.79C2.92 4.7 2.4 4.76 1.95 4.45Z" id="bc7XttSpP"></path><path d="M4.22 7.89C4.22 8.37 4.5 8.76 4.83 8.76C5.17 8.76 5.45 8.37 5.45 7.89C5.45 7.4 5.17 7.01 4.83 6.27C4.5 7.01 4.22 7.4 4.22 7.89Z" id="h4qwgbkcfJ"></path><path d="M7.54 7.15C7.9 7.63 7.95 8.27 7.65 8.58C7.34 8.89 6.81 8.75 6.45 8.27C6.09 7.79 6.05 7.15 5.8 6.11C6.65 6.53 7.19 6.67 7.54 7.15Z" id="aYo7mEvUW"></path><path d="M7.95 5.5C8.56 5.35 8.99 4.92 8.93 4.53C8.86 4.14 8.31 3.94 7.71 4.08C7.1 4.22 6.66 4.65 5.8 5.26C6.8 5.44 7.34 5.64 7.95 5.5Z" id="ak7WOImZg"></path><path d="M3.76 2.67C3.67 2.2 3.83 1.75 4.11 1.69C4.4 1.62 4.69 1.94 4.78 2.42C4.86 2.89 4.7 3.33 4.55 4.13C4.14 3.47 3.84 3.15 3.76 2.67Z" id="b7nFCm9gD"></path><path d="M7.03 2.86C7.41 2.23 7.48 1.54 7.2 1.31C6.92 1.08 6.39 1.4 6.02 2.03C5.64 2.66 5.57 3.36 5.28 4.54C6.13 3.81 6.66 3.49 7.03 2.86Z" id="a1YAi2Phpb"></path></defs><g><g><g><use xlink:href="#h1pZzGz3Rf" opacity="1" fill="#03e1e7" fill-opacity="1"></use></g><g><use xlink:href="#a18jtpL1a" opacity="1" fill="#03e1e7" fill-opacity="1"></use></g><g><use xlink:href="#aOqhfgreK" opacity="1" fill="#03e1e7" fill-opacity="1"></use></g><g><use xlink:href="#a4QyruFwm" opacity="1" fill="#03e1e7" fill-opacity="1"></use></g><g><use xlink:href="#c1VNp1YrtP" opacity="1" fill="#03e1e7" fill-opacity="1"></use></g><g><use xlink:href="#bfqqyBfRN" opacity="1" fill="#03e1e7" fill-opacity="1"></use></g><g><use xlink:href="#c2MIHSzWYH" opacity="1" fill="#03e1e7" fill-opacity="1"></use></g><g><use xlink:href="#bgh1PAcpc" opacity="1" fill="#03e1e7" fill-opacity="1"></use></g><g><use xlink:href="#b3vYm8MAQE" opacity="1" fill="#03e1e7" fill-opacity="1"></use></g><g><use xlink:href="#aybpKHNrj" opacity="1" fill="#03e1e7" fill-opacity="1"></use></g><g><use xlink:href="#bc7XttSpP" opacity="1" fill="#03e1e7" fill-opacity="1"></use></g><g><use xlink:href="#h4qwgbkcfJ" opacity="1" fill="#03e1e7" fill-opacity="1"></use></g><g><use xlink:href="#aYo7mEvUW" opacity="1" fill="#03e1e7" fill-opacity="1"></use></g><g><use xlink:href="#ak7WOImZg" opacity="1" fill="#03e1e7" fill-opacity="1"></use></g><g><use xlink:href="#b7nFCm9gD" opacity="1" fill="#03e1e7" fill-opacity="1"></use></g><g><use xlink:href="#a1YAi2Phpb" opacity="1" fill="#03e1e7" fill-opacity="1"></use></g></g></g></svg>